<?xml version="1.0" encoding="UTF-8" standalone="no"?>
<!-- Generator: Adobe Illustrator 13.0.2, SVG Export Plug-In . SVG Version: 6.00 Build 14948)  -->

<svg
   xmlns:dc="http://purl.org/dc/elements/1.1/"
   xmlns:cc="http://creativecommons.org/ns#"
   xmlns:rdf="http://www.w3.org/1999/02/22-rdf-syntax-ns#"
   xmlns:svg="http://www.w3.org/2000/svg"
   xmlns="http://www.w3.org/2000/svg"
   xmlns:sodipodi="http://sodipodi.sourceforge.net/DTD/sodipodi-0.dtd"
   xmlns:inkscape="http://www.inkscape.org/namespaces/inkscape"
   version="1.0"
   id="Layer_1"
   x="0px"
   y="0px"
   width="64px"
   height="64px"
   viewBox="5.5 -3.5 64 64"
   enable-background="new 5.5 -3.5 64 64"
   xml:space="preserve"
   inkscape:version="0.91 r13725"
   sodipodi:docname="by.svg"><metadata
     id="metadata15"><rdf:RDF><cc:Work
         rdf:about=""><dc:format>image/svg+xml</dc:format><dc:type
           rdf:resource="http://purl.org/dc/dcmitype/StillImage" /></cc:Work></rdf:RDF></metadata><defs
     id="defs13" /><sodipodi:namedview
     pagecolor="#ffffff"
     bordercolor="#666666"
     borderopacity="1"
     objecttolerance="10"
     gridtolerance="10"
     guidetolerance="10"
     inkscape:pageopacity="0"
     inkscape:pageshadow="2"
     inkscape:window-width="1366"
     inkscape:window-height="712"
     id="namedview11"
     showgrid="false"
     inkscape:zoom="3.6875"
     inkscape:cx="32"
     inkscape:cy="32.135593"
     inkscape:window-x="0"
     inkscape:window-y="0"
     inkscape:window-maximized="1"
     inkscape:current-layer="Layer_1" /><g
     id="g3"><circle
       fill="#FFFFFF"
       cx="37.637"
       cy="28.806"
       r="28.276"
       id="circle5" /><g
       id="g7"><path
         d="M37.443-3.5c8.988,0,16.57,3.085,22.742,9.257C66.393,11.967,69.5,19.548,69.5,28.5c0,8.991-3.049,16.476-9.145,22.456    C53.879,57.319,46.242,60.5,37.443,60.5c-8.649,0-16.153-3.144-22.514-9.43C8.644,44.784,5.5,37.262,5.5,28.5    c0-8.761,3.144-16.342,9.429-22.742C21.101-0.415,28.604-3.5,37.443-3.5z M37.557,2.272c-7.276,0-13.428,2.553-18.457,7.657    c-5.22,5.334-7.829,11.525-7.829,18.572c0,7.086,2.59,13.22,7.77,18.398c5.181,5.182,11.352,7.771,18.514,7.771    c7.123,0,13.334-2.607,18.629-7.828c5.029-4.838,7.543-10.952,7.543-18.343c0-7.276-2.553-13.465-7.656-18.571    C50.967,4.824,44.795,2.272,37.557,2.272z M46.129,20.557v13.085h-3.656v15.542h-9.944V33.643h-3.656V20.557    c0-0.572,0.2-1.057,0.599-1.457c0.401-0.399,0.887-0.6,1.457-0.6h13.144c0.533,0,1.01,0.2,1.428,0.6    C45.918,19.5,46.129,19.986,46.129,20.557z M33.042,12.329c0-3.008,1.485-4.514,4.458-4.514s4.457,1.504,4.457,4.514    c0,2.971-1.486,4.457-4.457,4.457S33.042,15.3,33.042,12.329z"
         id="path9" /></g></g><path
     style="fill:#ff0000"
     d="M 27.168746,63.537188 C 20.589098,62.577548 14.796076,59.555417 9.6168876,54.380648 3.5257548,48.294717 0.60514202,41.818774 0.24493473,33.6 -0.17820811,23.945238 3.0339425,15.788519 9.9098254,9.0576271 14.985864,4.0886267 21.070685,1.1839031 28.124274,0.36255864 39.702329,-0.98563054 50.675393,3.6470419 57.563284,12.791293 c 4.315816,5.729603 6.170145,11.488948 6.175878,19.181588 0.0043,5.72735 -0.770224,9.484562 -2.863485,13.891298 -3.512089,7.39366 -11.390983,14.136995 -19.412404,16.61456 -3.994172,1.233673 -10.029215,1.680542 -14.294527,1.058449 z m 10.277841,-5.840377 c 4.809698,-0.911311 9.581625,-3.564732 13.553017,-7.536125 3.553302,-3.553302 5.773741,-7.637326 6.792244,-12.492889 0.544076,-2.593804 0.625725,-8.218791 0.153519,-10.576272 C 56.288317,18.818736 51.126107,12.048278 43.688136,8.3925576 40.381923,6.7675726 38.148228,6.136381 34.481687,5.7910229 32.230072,5.5789388 27.959406,5.8065858 26.19661,6.2326571 21.082659,7.4687089 17.155632,9.7069847 13.356232,13.551249 7.6469096,19.327989 4.8798514,27.228602 5.8338338,35.0295 c 0.7604238,6.218131 3.3253082,11.248838 8.0456452,15.78055 6.601936,6.338124 14.414164,8.621006 23.567108,6.886761 z"
     id="path4143"
     inkscape:connector-curvature="0"
     transform="translate(5.5,-3.5)" /><path
     style="fill:#ff0000"
     d="m 27.281356,44.8 0,-7.728814 -1.898305,0 -1.898305,0 0,-6.743089 c 0,-6.411172 0.02767,-6.778261 0.562055,-7.457627 l 0.562056,-0.714538 7.314678,0 7.314678,0 0.665639,0.66564 0.66564,0.665639 0,6.791988 0,6.791987 -1.898306,0 -1.898305,0 0,7.728814 0,7.728814 -4.745762,0 -4.745763,0 0,-7.728814 z"
     id="path4145"
     inkscape:connector-curvature="0"
     transform="translate(5.5,-3.5)" /><path
     style="fill:#ff0000"
     d="m 30.671186,20.015867 c -2.147443,-0.544886 -2.915254,-1.665152 -2.915254,-4.253471 0,-2.956908 1.228298,-4.185588 4.177435,-4.178737 2.041721,0.0047 2.838725,0.355039 3.701966,1.627071 0.557584,0.82163 0.62898,1.199999 0.546109,2.894143 -0.07948,1.624917 -0.207318,2.068651 -0.768896,2.668969 -0.37046,0.396015 -0.856614,0.818812 -1.080343,0.939548 -0.651367,0.351514 -2.775958,0.527049 -3.661017,0.302477 z"
     id="path4147"
     inkscape:connector-curvature="0"
     transform="translate(5.5,-3.5)" /></svg>