<?xml version="1.0" encoding="UTF-8" standalone="no"?>
<!-- Generator: Adobe Illustrator 13.0.2, SVG Export Plug-In . SVG Version: 6.00 Build 14948)  -->

<svg
   xmlns:dc="http://purl.org/dc/elements/1.1/"
   xmlns:cc="http://creativecommons.org/ns#"
   xmlns:rdf="http://www.w3.org/1999/02/22-rdf-syntax-ns#"
   xmlns:svg="http://www.w3.org/2000/svg"
   xmlns="http://www.w3.org/2000/svg"
   xmlns:sodipodi="http://sodipodi.sourceforge.net/DTD/sodipodi-0.dtd"
   xmlns:inkscape="http://www.inkscape.org/namespaces/inkscape"
   version="1.0"
   id="Layer_1"
   x="0px"
   y="0px"
   width="64px"
   height="64px"
   viewBox="5.5 -3.5 64 64"
   enable-background="new 5.5 -3.5 64 64"
   xml:space="preserve"
   inkscape:version="0.91 r13725"
   sodipodi:docname="cc.svg"><metadata
     id="metadata13"><rdf:RDF><cc:Work
         rdf:about=""><dc:format>image/svg+xml</dc:format><dc:type
           rdf:resource="http://purl.org/dc/dcmitype/StillImage" /></cc:Work></rdf:RDF></metadata><defs
     id="defs11" /><sodipodi:namedview
     pagecolor="#ffffff"
     bordercolor="#666666"
     borderopacity="1"
     objecttolerance="10"
     gridtolerance="10"
     guidetolerance="10"
     inkscape:pageopacity="0"
     inkscape:pageshadow="2"
     inkscape:window-width="1366"
     inkscape:window-height="712"
     id="namedview9"
     showgrid="false"
     inkscape:zoom="3.6875"
     inkscape:cx="32"
     inkscape:cy="32.135593"
     inkscape:window-x="0"
     inkscape:window-y="0"
     inkscape:window-maximized="1"
     inkscape:current-layer="Layer_1" /><g
     id="g3"><circle
       fill="#FFFFFF"
       cx="37.785"
       cy="28.501"
       r="28.836"
       id="circle5" /><path
       d="M37.441-3.5c8.951,0,16.572,3.125,22.857,9.372c3.008,3.009,5.295,6.448,6.857,10.314   c1.561,3.867,2.344,7.971,2.344,12.314c0,4.381-0.773,8.486-2.314,12.313c-1.543,3.828-3.82,7.21-6.828,10.143   c-3.123,3.085-6.666,5.448-10.629,7.086c-3.961,1.638-8.057,2.457-12.285,2.457s-8.276-0.808-12.143-2.429   c-3.866-1.618-7.333-3.961-10.4-7.027c-3.067-3.066-5.4-6.524-7-10.372S5.5,32.767,5.5,28.5c0-4.229,0.809-8.295,2.428-12.2   c1.619-3.905,3.972-7.4,7.057-10.486C21.08-0.394,28.565-3.5,37.441-3.5z M37.557,2.272c-7.314,0-13.467,2.553-18.458,7.657   c-2.515,2.553-4.448,5.419-5.8,8.6c-1.354,3.181-2.029,6.505-2.029,9.972c0,3.429,0.675,6.734,2.029,9.913   c1.353,3.183,3.285,6.021,5.8,8.516c2.514,2.496,5.351,4.399,8.515,5.715c3.161,1.314,6.476,1.971,9.943,1.971   c3.428,0,6.75-0.665,9.973-1.999c3.219-1.335,6.121-3.257,8.713-5.771c4.99-4.876,7.484-10.99,7.484-18.344   c0-3.543-0.648-6.895-1.943-10.057c-1.293-3.162-3.18-5.98-5.654-8.458C50.984,4.844,44.795,2.272,37.557,2.272z M37.156,23.187   l-4.287,2.229c-0.458-0.951-1.019-1.619-1.685-2c-0.667-0.38-1.286-0.571-1.858-0.571c-2.856,0-4.286,1.885-4.286,5.657   c0,1.714,0.362,3.084,1.085,4.113c0.724,1.029,1.791,1.544,3.201,1.544c1.867,0,3.181-0.915,3.944-2.743l3.942,2   c-0.838,1.563-2,2.791-3.486,3.686c-1.484,0.896-3.123,1.343-4.914,1.343c-2.857,0-5.163-0.875-6.915-2.629   c-1.752-1.752-2.628-4.19-2.628-7.313c0-3.048,0.886-5.466,2.657-7.257c1.771-1.79,4.009-2.686,6.715-2.686   C32.604,18.558,35.441,20.101,37.156,23.187z M55.613,23.187l-4.229,2.229c-0.457-0.951-1.02-1.619-1.686-2   c-0.668-0.38-1.307-0.571-1.914-0.571c-2.857,0-4.287,1.885-4.287,5.657c0,1.714,0.363,3.084,1.086,4.113   c0.723,1.029,1.789,1.544,3.201,1.544c1.865,0,3.18-0.915,3.941-2.743l4,2c-0.875,1.563-2.057,2.791-3.541,3.686   c-1.486,0.896-3.105,1.343-4.857,1.343c-2.896,0-5.209-0.875-6.941-2.629c-1.736-1.752-2.602-4.19-2.602-7.313   c0-3.048,0.885-5.466,2.658-7.257c1.77-1.79,4.008-2.686,6.713-2.686C51.117,18.558,53.938,20.101,55.613,23.187z"
       id="path7" /></g><path
     style="fill:#ff0000"
     d="M 26.60339,63.401337 C 19.882584,62.201592 13.887409,58.928795 8.9577657,53.768494 6.3358696,51.023919 4.9020987,48.968206 3.267754,45.610264 -1.0390572,36.761445 -0.85601063,26.230527 3.7587902,17.360297 6.8806172,11.359751 12.650014,5.7861543 18.672513,2.9527105 c 7.181751,-3.37884409 17.076013,-3.71573605 24.69431,-0.8408221 6.09593,2.3004191 11.721318,6.8316137 15.359029,12.3715426 5.243376,7.98522 6.56237,18.527378 3.494509,27.930128 C 59.289793,51.39552 51.493426,59.019075 41.978316,62.206932 37.298489,63.774818 31.30419,64.240485 26.60339,63.401337 Z M 38.767235,57.364334 C 44.787073,55.752911 50.675178,51.567059 54.178121,46.408746 58.94976,39.382197 59.658671,28.951767 55.915262,20.849647 52.930951,14.390498 46.9551,9.0692754 40.298305,6.9434601 37.393077,6.0156892 35.452193,5.7312331 32.027119,5.7312331 c -7.487245,0 -13.468336,2.4849052 -18.599441,7.7273279 -3.387376,3.460864 -5.9419741,8.000495 -7.0704547,12.564505 -0.8394427,3.39503 -0.8411837,8.497832 -0.00405,11.882558 1.1216995,4.535317 3.393542,8.599992 6.8118269,12.187404 3.3168,3.480908 7.724067,6.102674 12.126766,7.213895 3.16682,0.799293 3.17354,0.799935 7.413323,0.710509 2.931466,-0.06183 4.47427,-0.228044 6.06215,-0.653098 z"
     id="path4141"
     inkscape:connector-curvature="0"
     transform="translate(5.5,-3.5)" /><path
     style="fill:#ff0000"
     d="m 19.51364,41.129071 c -1.915676,-0.753737 -3.711011,-2.412041 -4.623837,-4.270918 -0.705491,-1.436662 -0.760989,-1.787006 -0.760989,-4.803916 0,-2.763021 0.08845,-3.445634 0.586004,-4.522215 0.829984,-1.795897 2.607596,-3.612607 4.39257,-4.489183 1.32763,-0.651982 1.852585,-0.751314 3.970578,-0.751314 3.326506,0 4.964692,0.590337 6.838777,2.464422 0.787825,0.787825 1.43241,1.560868 1.43241,1.717873 0,0.157005 -0.858865,0.71798 -1.908588,1.246612 l -1.908587,0.961149 -0.699986,-0.831886 c -1.034867,-1.229869 -2.138146,-1.71052 -3.558758,-1.550396 -1.407993,0.158701 -2.419619,0.834197 -3.178319,2.122268 -0.736277,1.250003 -0.773076,5.621719 -0.05848,6.946839 1.528946,2.835202 4.899038,3.267656 7.016346,0.900344 l 0.991769,-1.108872 1.647786,0.887857 c 0.906282,0.488322 1.649816,1.032266 1.652299,1.208765 0.0083,0.586934 -2.552011,2.949331 -3.92769,3.62414 -1.894636,0.929372 -5.856158,1.053897 -7.903309,0.248431 z"
     id="path4143"
     inkscape:connector-curvature="0"
     transform="translate(5.5,-3.5)" /><path
     style="fill:#ff0000"
     d="m 37.972697,41.123535 c -2.006335,-0.771892 -3.476257,-2.160653 -4.51046,-4.261419 -0.846151,-1.718776 -0.892745,-1.969712 -0.892745,-4.807879 0,-2.834189 0.04747,-3.090879 0.886927,-4.79606 1.018152,-2.068162 2.248768,-3.260809 4.388834,-4.253425 1.934413,-0.897229 5.320827,-0.98736 7.580809,-0.201767 1.459754,0.507425 4.363769,2.927171 4.363769,3.636073 0,0.176124 -0.865883,0.756277 -1.924184,1.289228 -1.8263,0.91971 -1.943121,0.944025 -2.29646,0.477986 -0.204752,-0.27006 -0.376158,-0.580063 -0.380901,-0.688896 -0.0047,-0.108833 -0.518259,-0.457874 -1.141144,-0.775646 -2.013986,-1.02746 -4.313752,-0.360052 -5.451147,1.581959 -0.658881,1.124989 -0.892377,3.992032 -0.468885,5.757345 0.911824,3.80091 4.875039,4.973275 7.372443,2.180854 l 0.997858,-1.115735 1.794302,0.904574 1.794302,0.904574 -0.810635,1.119049 c -0.936374,1.292627 -2.784208,2.641818 -4.398022,3.211205 -1.635054,0.576881 -5.201611,0.49319 -6.904661,-0.16202 z"
     id="path4145"
     inkscape:connector-curvature="0"
     transform="translate(5.5,-3.5)" /></svg>