<?xml version="1.0" encoding="UTF-8" standalone="no"?>
<!-- Generator: Adobe Illustrator 13.0.2, SVG Export Plug-In . SVG Version: 6.00 Build 14948)  -->

<svg
   xmlns:dc="http://purl.org/dc/elements/1.1/"
   xmlns:cc="http://creativecommons.org/ns#"
   xmlns:rdf="http://www.w3.org/1999/02/22-rdf-syntax-ns#"
   xmlns:svg="http://www.w3.org/2000/svg"
   xmlns="http://www.w3.org/2000/svg"
   xmlns:sodipodi="http://sodipodi.sourceforge.net/DTD/sodipodi-0.dtd"
   xmlns:inkscape="http://www.inkscape.org/namespaces/inkscape"
   version="1.0"
   id="Layer_1"
   x="0px"
   y="0px"
   width="64px"
   height="64px"
   viewBox="5.5 -3.5 64 64"
   enable-background="new 5.5 -3.5 64 64"
   xml:space="preserve"
   inkscape:version="0.91 r13725"
   sodipodi:docname="nc.svg"><metadata
     id="metadata15"><rdf:RDF><cc:Work
         rdf:about=""><dc:format>image/svg+xml</dc:format><dc:type
           rdf:resource="http://purl.org/dc/dcmitype/StillImage" /></cc:Work></rdf:RDF></metadata><defs
     id="defs13" /><sodipodi:namedview
     pagecolor="#ffffff"
     bordercolor="#666666"
     borderopacity="1"
     objecttolerance="10"
     gridtolerance="10"
     guidetolerance="10"
     inkscape:pageopacity="0"
     inkscape:pageshadow="2"
     inkscape:window-width="1366"
     inkscape:window-height="712"
     id="namedview11"
     showgrid="false"
     inkscape:zoom="3.6875"
     inkscape:cx="32"
     inkscape:cy="32.135593"
     inkscape:window-x="0"
     inkscape:window-y="0"
     inkscape:window-maximized="1"
     inkscape:current-layer="Layer_1" /><g
     id="g3"><circle
       fill="#FFFFFF"
       cx="37.47"
       cy="28.736"
       r="29.471"
       id="circle5" /><g
       id="g7"><path
         d="M37.442-3.5c8.99,0,16.571,3.085,22.743,9.256C66.393,11.928,69.5,19.509,69.5,28.5c0,8.992-3.048,16.476-9.145,22.458    C53.88,57.32,46.241,60.5,37.442,60.5c-8.686,0-16.19-3.162-22.513-9.485C8.644,44.728,5.5,37.225,5.5,28.5    c0-8.762,3.144-16.343,9.429-22.743C21.1-0.414,28.604-3.5,37.442-3.5z M12.7,19.872c-0.952,2.628-1.429,5.505-1.429,8.629    c0,7.086,2.59,13.22,7.77,18.4c5.219,5.144,11.391,7.715,18.514,7.715c7.201,0,13.409-2.608,18.63-7.829    c1.867-1.79,3.332-3.657,4.398-5.602l-12.056-5.371c-0.421,2.02-1.439,3.667-3.057,4.942c-1.622,1.276-3.535,2.011-5.744,2.2    v4.915h-3.714v-4.915c-3.543-0.036-6.782-1.312-9.714-3.827l4.4-4.457c2.094,1.942,4.476,2.913,7.143,2.913    c1.104,0,2.048-0.246,2.83-0.743c0.78-0.494,1.172-1.312,1.172-2.457c0-0.801-0.287-1.448-0.858-1.943l-3.085-1.315l-3.771-1.715    l-5.086-2.229L12.7,19.872z M37.557,2.214c-7.276,0-13.428,2.571-18.457,7.714c-1.258,1.258-2.439,2.686-3.543,4.287L27.786,19.7    c0.533-1.676,1.542-3.019,3.029-4.028c1.484-1.009,3.218-1.571,5.2-1.686V9.071h3.715v4.915c2.934,0.153,5.6,1.143,8,2.971    l-4.172,4.286c-1.793-1.257-3.619-1.885-5.486-1.885c-0.991,0-1.876,0.191-2.656,0.571c-0.781,0.381-1.172,1.029-1.172,1.943    c0,0.267,0.095,0.533,0.285,0.8l4.057,1.83l2.8,1.257l5.144,2.285l16.397,7.314c0.535-2.248,0.801-4.533,0.801-6.857    c0-7.353-2.552-13.543-7.656-18.573C51.005,4.785,44.831,2.214,37.557,2.214z"
         id="path9" /></g></g><path
     style="fill:#ff0000"
     d="M 27.145763,63.536678 C 20.46497,62.573958 14.02528,59.095764 8.9010701,53.682389 3.3556206,47.824005 0.58680108,41.400293 0.24493473,33.6 -0.17820811,23.945238 3.0339425,15.788519 9.9098254,9.0576271 16.314117,2.7883821 24.696861,-0.3217878 33.791813,0.19691989 42.360461,0.68561134 49.515702,3.9938264 55.297717,10.140147 c 7.590001,8.068218 10.338226,19.225081 7.494015,30.423183 -2.927876,11.527498 -13.400627,20.895382 -25.56553,22.86838 -2.677489,0.434256 -7.450446,0.483956 -10.080439,0.104968 z m 9.942245,-5.778593 c 5.754349,-1.111243 11.005283,-4.221768 15.191572,-8.99911 1.706183,-1.947075 3.007257,-3.946655 2.731034,-4.197234 -0.234213,-0.212472 -11.138636,-5.047276 -11.681665,-5.17942 -0.218742,-0.05323 -0.569491,0.465861 -0.897047,1.32758 -1.000241,2.631401 -4.260504,5.107506 -7.154497,5.4337 l -1.216388,0.137104 0,2.541003 0,2.541004 -1.762712,0 -1.762712,0 0,-2.576271 0,-2.576272 -1.016949,-0.0066 c -2.226969,-0.01451 -5.100398,-1.077952 -7.385645,-2.733377 l -1.158395,-0.839138 2.111374,-2.123829 2.111374,-2.123829 0.838612,0.62819 c 2.786989,2.087685 6.764513,2.766714 9.039195,1.54314 C 36.574167,39.74835 36.94989,37.37568 35.755932,36.255628 35.179211,35.714606 8.5641915,23.612666 7.3725426,23.349604 6.9523477,23.256844 6.1218888,26.408261 5.8047604,29.299007 5.2979257,33.919002 6.2493668,39.432054 8.2318687,43.362698 11.873069,50.581993 18.883124,56.012521 26.769622,57.723474 c 2.292463,0.497342 7.826077,0.515897 10.318386,0.0346 l 0,1.3e-5 z M 57.936076,36.926679 C 58.416732,34.077022 58.349299,29.138454 57.792523,26.413559 55.764393,16.487753 47.803929,8.430006 37.787802,6.1643647 36.446907,5.8610555 34.576084,5.7222023 31.891525,5.7267412 c -3.336531,0.00564 -4.329939,0.111575 -6.557763,0.6992992 -2.96142,0.7812545 -5.790301,2.1093283 -8.291678,3.8926916 -1.927901,1.374502 -4.956908,4.362532 -6.255713,6.171086 -0.8027498,1.117809 -0.8354113,1.240215 -0.393594,1.475078 1.183187,0.628963 11.494113,5.194426 11.731416,5.194426 0.145631,0 0.501046,-0.463112 0.789811,-1.029138 1.120414,-2.196194 4.531224,-4.394591 6.818202,-4.394591 l 0.803387,0 0,-2.576271 0,-2.576271 1.762712,0 1.762712,0 0,2.449189 c 0,1.729624 0.09959,2.476146 0.338983,2.540944 0.186441,0.05046 1.060271,0.227353 1.941849,0.393084 1.424852,0.267863 4.192942,1.404596 5.312388,2.181565 0.335697,0.232995 0.05762,0.634156 -1.591308,2.29566 l -1.998091,2.013328 -1.731485,-0.81026 c -3.799243,-1.777881 -8.265093,-0.602735 -7.605207,2.001238 0.135211,0.533555 2.312844,1.593937 14.203908,6.916488 7.72432,3.457478 14.185733,6.294767 14.358699,6.305085 0.183143,0.01093 0.452653,-0.800412 0.645323,-1.942693 z"
     id="path4143"
     inkscape:connector-curvature="0"
     transform="translate(5.5,-3.5)" /></svg>