<?xml version="1.0" encoding="UTF-8" standalone="no"?>
<!-- Generator: Adobe Illustrator 13.0.2, SVG Export Plug-In . SVG Version: 6.00 Build 14948)  -->

<svg
   xmlns:dc="http://purl.org/dc/elements/1.1/"
   xmlns:cc="http://creativecommons.org/ns#"
   xmlns:rdf="http://www.w3.org/1999/02/22-rdf-syntax-ns#"
   xmlns:svg="http://www.w3.org/2000/svg"
   xmlns="http://www.w3.org/2000/svg"
   xmlns:sodipodi="http://sodipodi.sourceforge.net/DTD/sodipodi-0.dtd"
   xmlns:inkscape="http://www.inkscape.org/namespaces/inkscape"
   version="1.1"
   id="Layer_1"
   x="0px"
   y="0px"
   width="64.000977px"
   height="64px"
   viewBox="0 0 64.000977 64"
   enable-background="new 0 0 64.000977 64"
   xml:space="preserve"
   inkscape:version="0.91 r13725"
   sodipodi:docname="nd.svg"><metadata
     id="metadata15"><rdf:RDF><cc:Work
         rdf:about=""><dc:format>image/svg+xml</dc:format><dc:type
           rdf:resource="http://purl.org/dc/dcmitype/StillImage" /></cc:Work></rdf:RDF></metadata><defs
     id="defs13" /><sodipodi:namedview
     pagecolor="#ffffff"
     bordercolor="#666666"
     borderopacity="1"
     objecttolerance="10"
     gridtolerance="10"
     guidetolerance="10"
     inkscape:pageopacity="0"
     inkscape:pageshadow="2"
     inkscape:window-width="1366"
     inkscape:window-height="712"
     id="namedview11"
     showgrid="false"
     inkscape:zoom="3.6875"
     inkscape:cx="-14.914766"
     inkscape:cy="32.135593"
     inkscape:window-x="0"
     inkscape:window-y="0"
     inkscape:window-maximized="1"
     inkscape:current-layer="Layer_1" /><g
     id="g3"><circle
       fill="#FFFFFF"
       cx="32.064453"
       cy="31.788086"
       r="29.012695"
       id="circle5" /><g
       id="g7"><path
         d="M31.943848,0C40.896484,0,48.476562,3.105469,54.6875,9.314453C60.894531,15.486328,64.000977,23.045898,64.000977,32    s-3.048828,16.457031-9.145508,22.513672C48.417969,60.837891,40.779297,64,31.942871,64    c-8.648926,0-16.152832-3.142578-22.513672-9.429688C3.144043,48.286133,0,40.761719,0,32.000977    c0-8.723633,3.144043-16.285156,9.429199-22.68457C15.640137,3.105469,23.14502,0,31.943848,0z M32.060547,5.771484    c-7.275391,0-13.429688,2.570312-18.458496,7.714844C8.381836,18.783203,5.772949,24.954102,5.772949,32    c0,7.125,2.589844,13.256836,7.77002,18.400391c5.181152,5.181641,11.352051,7.770508,18.515625,7.770508    c7.123047,0,13.332031-2.608398,18.626953-7.828125C55.713867,45.466797,58.228516,39.353516,58.228516,32    c0-7.3125-2.553711-13.484375-7.65625-18.513672C45.504883,8.341797,39.333984,5.771484,32.060547,5.771484z M44.117188,24.456055    v5.485352H20.859863v-5.485352H44.117188z M44.117188,34.743164v5.481445H20.859863v-5.481445H44.117188z"
         id="path9" /></g></g><path
     style="fill:#ff0000"
     d="M 27.169234,63.537188 C 20.589587,62.577548 14.796565,59.555417 9.6173759,54.380648 5.0995652,49.866696 2.6288772,45.64557 1.0372735,39.7217 0.40356015,37.363051 0.3397154,36.653831 0.3397154,31.972881 c 0,-4.693071 0.0627912,-5.386377 0.7041462,-7.77479 C 1.9354691,20.877735 3.259186,17.817463 4.9089428,15.262492 9.8562705,7.6005915 17.02247,2.5199371 25.383539,0.74652117 28.59555,0.065241 35.473418,0.07204122 38.671675,0.75965934 46.274105,2.3941645 52.854088,6.6006666 57.521741,12.810274 c 4.439376,5.905918 6.212101,11.369176 6.217909,19.162607 0.0058,7.741221 -1.747232,13.292261 -5.977768,18.929123 -5.02605,6.696824 -12.402527,11.210839 -20.453589,12.516507 -2.746978,0.445489 -7.51562,0.501305 -10.139059,0.118677 z m 10.277841,-5.838574 c 4.749538,-0.90387 9.508659,-3.525692 13.39539,-7.379582 5.063756,-5.020974 7.390257,-10.733006 7.417123,-18.210557 C 58.286758,24.54715 55.876966,18.642354 50.617549,13.382939 44.955715,7.7211054 37.531081,5.0274552 29.678774,5.7863729 22.731118,6.4578568 17.934947,8.8174286 13.042346,13.970995 9.5678621,17.630803 7.2233477,21.919292 6.2024126,26.482318 5.534914,29.465673 5.6080012,35.1208 6.3532875,38.156298 c 1.1664431,4.750837 3.6580775,8.93974 7.5266795,12.653752 6.608579,6.344502 14.423266,8.6287 23.567108,6.888564 z"
     id="path4143"
     inkscape:connector-curvature="0" /><path
     style="fill:#ff0000"
     d="m 21.044556,27.227119 0,-2.711865 11.525424,0 11.525424,0 0,2.711865 0,2.711864 -11.525424,0 -11.525424,0 0,-2.711864 z"
     id="path4147"
     inkscape:connector-curvature="0" /><path
     style="fill:#ff0000"
     d="m 21.044556,37.477966 0,-2.576271 11.525424,0 11.525424,0 0,2.576271 0,2.576271 -11.525424,0 -11.525424,0 0,-2.576271 z"
     id="path4149"
     inkscape:connector-curvature="0" /></svg>