<?xml version="1.0" encoding="UTF-8" standalone="no"?>
<!-- Generator: Adobe Illustrator 13.0.2, SVG Export Plug-In . SVG Version: 6.00 Build 14948)  -->

<svg
   xmlns:dc="http://purl.org/dc/elements/1.1/"
   xmlns:cc="http://creativecommons.org/ns#"
   xmlns:rdf="http://www.w3.org/1999/02/22-rdf-syntax-ns#"
   xmlns:svg="http://www.w3.org/2000/svg"
   xmlns="http://www.w3.org/2000/svg"
   xmlns:sodipodi="http://sodipodi.sourceforge.net/DTD/sodipodi-0.dtd"
   xmlns:inkscape="http://www.inkscape.org/namespaces/inkscape"
   version="1.0"
   id="Layer_1"
   x="0px"
   y="0px"
   width="64px"
   height="64px"
   viewBox="5.5 -3.5 64 64"
   enable-background="new 5.5 -3.5 64 64"
   xml:space="preserve"
   inkscape:version="0.91 r13725"
   sodipodi:docname="sa.svg"><metadata
     id="metadata15"><rdf:RDF><cc:Work
         rdf:about=""><dc:format>image/svg+xml</dc:format><dc:type
           rdf:resource="http://purl.org/dc/dcmitype/StillImage" /></cc:Work></rdf:RDF></metadata><defs
     id="defs13" /><sodipodi:namedview
     pagecolor="#ffffff"
     bordercolor="#666666"
     borderopacity="1"
     objecttolerance="10"
     gridtolerance="10"
     guidetolerance="10"
     inkscape:pageopacity="0"
     inkscape:pageshadow="2"
     inkscape:window-width="1366"
     inkscape:window-height="712"
     id="namedview11"
     showgrid="false"
     inkscape:zoom="3.6875"
     inkscape:cx="32"
     inkscape:cy="32.135593"
     inkscape:window-x="0"
     inkscape:window-y="0"
     inkscape:window-maximized="1"
     inkscape:current-layer="Layer_1" /><g
     id="g3"><circle
       fill="#FFFFFF"
       cx="36.944"
       cy="28.631"
       r="29.105"
       id="circle5" /><g
       id="g7"><path
         d="M37.443-3.5c8.951,0,16.531,3.105,22.742,9.315C66.393,11.987,69.5,19.548,69.5,28.5c0,8.954-3.049,16.457-9.145,22.514    C53.918,57.338,46.279,60.5,37.443,60.5c-8.649,0-16.153-3.143-22.514-9.429C8.644,44.786,5.5,37.264,5.5,28.501    c0-8.723,3.144-16.285,9.429-22.685C21.138-0.395,28.643-3.5,37.443-3.5z M37.557,2.272c-7.276,0-13.428,2.572-18.457,7.715    c-5.22,5.296-7.829,11.467-7.829,18.513c0,7.125,2.59,13.257,7.77,18.4c5.181,5.182,11.352,7.771,18.514,7.771    c7.123,0,13.334-2.609,18.629-7.828c5.029-4.876,7.543-10.99,7.543-18.343c0-7.313-2.553-13.485-7.656-18.513    C51.004,4.842,44.832,2.272,37.557,2.272z M23.271,23.985c0.609-3.924,2.189-6.962,4.742-9.114    c2.552-2.152,5.656-3.228,9.314-3.228c5.027,0,9.029,1.62,12,4.856c2.971,3.238,4.457,7.391,4.457,12.457    c0,4.915-1.543,9-4.627,12.256c-3.088,3.256-7.086,4.886-12.002,4.886c-3.619,0-6.743-1.085-9.371-3.257    c-2.629-2.172-4.209-5.257-4.743-9.257H31.1c0.19,3.886,2.533,5.829,7.029,5.829c2.246,0,4.057-0.972,5.428-2.914    c1.373-1.942,2.059-4.534,2.059-7.771c0-3.391-0.629-5.971-1.885-7.743c-1.258-1.771-3.066-2.657-5.43-2.657    c-4.268,0-6.667,1.885-7.2,5.656h2.343l-6.342,6.343l-6.343-6.343L23.271,23.985L23.271,23.985z"
         id="path9" /></g></g><path
     style="fill:#ff0000"
     d="M 27.168746,63.537188 C 20.589098,62.577548 14.796076,59.555417 9.6168876,54.380648 5.0990769,49.866696 2.6283889,45.64557 1.0367852,39.7217 0.40307186,37.363051 0.33922712,36.653831 0.33922712,31.972881 c 0,-4.693071 0.0627912,-5.386377 0.70414618,-7.77479 C 3.7559102,14.096575 11.277703,5.6629112 20.741321,2.1121509 24.575434,0.6735872 27.113923,0.25717557 32.027119,0.2608374 c 4.696556,0.0035 7.313898,0.40775867 10.847457,1.6754312 8.756055,3.1412547 16.338897,10.7665064 19.272263,19.3800514 1.219219,3.580112 1.588893,6.054151 1.592323,10.656561 0.0058,7.741221 -1.747233,13.292261 -5.977768,18.929123 -5.02605,6.696824 -12.402528,11.210839 -20.453589,12.516507 -2.746978,0.445489 -7.515621,0.501305 -10.139059,0.118677 z m 10.277841,-5.838574 c 4.749538,-0.90387 9.508659,-3.525692 13.39539,-7.379582 C 55.905733,45.298058 58.232233,39.586026 58.2591,32.108475 58.28627,24.54715 55.876477,18.642354 50.61706,13.382939 44.955227,7.7211054 37.530593,5.0274552 29.678286,5.7863729 22.73063,6.4578568 17.934459,8.8174286 13.041858,13.970995 9.5673738,17.630803 7.2228594,21.919292 6.2019243,26.482318 5.5344258,29.465673 5.6075129,35.1208 6.3527992,38.156298 c 1.1664431,4.750837 3.6580778,8.93974 7.5266798,12.653752 6.608579,6.344502 14.423265,8.6287 23.567108,6.888564 z"
     id="path4143"
     inkscape:connector-curvature="0"
     transform="translate(5.5,-3.5)" /><path
     style="fill:#ff0000"
     d="m 29.000997,49.264564 c -5.379131,-0.959693 -9.453139,-4.674926 -10.843193,-9.888293 -0.582975,-2.186433 -0.809542,-2.057454 3.46676,-1.973547 l 3.834734,0.07524 0.313734,1.236938 c 0.661973,2.609912 2.42871,3.929638 5.665276,4.231873 2.423015,0.226264 3.955989,-0.240415 5.576915,-1.697767 3.054663,-2.746405 4.111159,-8.968473 2.440992,-14.375843 -0.623849,-2.019788 -1.91144,-3.629902 -3.613987,-4.51924 -1.304071,-0.68119 -4.526969,-0.797234 -6.21125,-0.223642 -1.931152,0.657664 -3.516547,2.472184 -3.991203,4.56802 l -0.199606,0.881356 1.122476,0 1.122477,0 -3.047779,3.047779 -3.047779,3.04778 -2.992632,-2.979983 -2.992633,-2.979983 1.140567,-0.135593 1.140567,-0.135593 0.359162,-1.587811 c 1.081124,-4.779517 4.983372,-8.852694 9.679037,-10.103003 1.868251,-0.497457 6.437497,-0.478726 8.45329,0.03465 3.935498,1.002287 7.709332,3.906702 9.524833,7.330491 1.643145,3.098755 2.12688,5.248123 2.102638,9.342618 -0.01893,3.196786 -0.113057,3.938813 -0.742335,5.851772 -1.697442,5.16009 -5.922808,9.248274 -10.897951,10.544133 -1.98365,0.516675 -5.622729,0.718145 -7.36311,0.407642 z"
     id="path4145"
     inkscape:connector-curvature="0"
     transform="translate(5.5,-3.5)" /></svg>